<svg xmlns="http://www.w3.org/2000/svg" width="29.3" height="29.3" viewBox="0 0 29.3 29.3">
  <path id="message" d="M259.48,433.55a14.514,14.514,0,0,1-6.12-1.34l-7.78.11v-8.81a14.455,14.455,0,0,1-.75-4.61,14.65,14.65,0,1,1,14.65,14.65Zm-5.68-3.35.21.1a12.485,12.485,0,0,0,5.47,1.25,12.651,12.651,0,1,0-11.96-8.53l.05.16v7.11Zm-1.25-11.94a1.35,1.35,0,1,0,1.35,1.35A1.344,1.344,0,0,0,252.55,418.26Zm6.79.06a1.35,1.35,0,1,0,1.35,1.35A1.344,1.344,0,0,0,259.34,418.32Zm6.94-.06a1.35,1.35,0,1,0,1.35,1.35A1.344,1.344,0,0,0,266.28,418.26Z" transform="translate(-244.83 -404.25)" fill="#8a8a8a"/>
</svg>
