<svg xmlns="http://www.w3.org/2000/svg" width="25.031" height="28.22" viewBox="0 0 25.031 28.22">
  <g id="my" transform="translate(-252.019 -419.72)">
    <path id="路径_8" data-name="路径 8" d="M293.65,419.72" transform="translate(-16.601)" fill="none" stroke="#8a8a8a" stroke-linecap="round" stroke-miterlimit="10" stroke-width="2"/>
    <path id="路径_9" data-name="路径 9" d="M271.34,429.39a7.62,7.62,0,0,1-7.61,7.61,7.339,7.339,0,0,1-1.3-.18,4.892,4.892,0,0,0-1.21-.15.831.831,0,0,1-.22.01c-.01,0-.02.01-.03.01-.04.01-4.1.89-5.64,4.16a12.279,12.279,0,0,0-1.28,5.52l-.03.62a1.007,1.007,0,0,1-1,.95h-.05a1,1,0,0,1-.95-1.05l.03-.6a14.184,14.184,0,0,1,1.47-6.29c1.97-4.18,6.84-5.22,7.05-5.26a.739.739,0,0,1,.21,0,5.181,5.181,0,0,1,2.05.13,5.47,5.47,0,1,0-3.82-2.44,1,1,0,1,1-1.68,1.08,7.532,7.532,0,0,1-1.2-4.11,7.6,7.6,0,0,1,15.21-.01Zm4.43,18.55a1,1,0,0,0,.95-1.05l-.02-.44a11.017,11.017,0,0,0-1.35-5.16,8,8,0,0,0-5.46-4.67,1,1,0,0,0-.35,1.97,5.992,5.992,0,0,1,3.99,3.53,9.274,9.274,0,0,1,1.17,4.41l.02.45a1.007,1.007,0,0,0,1,.95A.09.09,0,0,0,275.77,447.94Z" fill="#8a8a8a"/>
  </g>
</svg>
