<svg xmlns="http://www.w3.org/2000/svg" width="31.031" height="31.61" viewBox="0 0 31.031 31.61">
  <path id="shopping" d="M227.41,461.19H204.72a4.166,4.166,0,0,1-4.15-4.53l2-23.26a4.163,4.163,0,0,1,4.16-3.82h18.68a4.156,4.156,0,0,1,4.16,3.82l2,23.26a4.179,4.179,0,0,1-1.08,3.18A4.257,4.257,0,0,1,227.41,461.19Zm-20.69-29.62a2.162,2.162,0,0,0-2.17,1.99l-2,23.26a2.205,2.205,0,0,0,.56,1.66,2.173,2.173,0,0,0,1.6.7H227.4a2.157,2.157,0,0,0,1.6-.7,2.1,2.1,0,0,0,.56-1.66l-2-23.26a2.17,2.17,0,0,0-2.17-1.99Zm17.65,5.55a1,1,0,1,0-1.99-.21c-.01.07-.82,7.16-6.32,7.16-5.69,0-6.86-6.92-6.9-7.21a1,1,0,0,0-1.97.31c.48,3.08,2.95,8.9,8.88,8.9C221.89,446.07,224.04,440.22,224.37,437.12Z" transform="translate(-200.555 -429.58)" fill="#898989"/>
</svg>
